<svg xmlns="http://www.w3.org/2000/svg" width="2083.795" height="2000" viewBox="0 0 2083.795 2000">
  <g id="Group_70" data-name="Group 70" transform="translate(16889.795 2327)">
    <path id="Path_2" data-name="Path 2" d="M1000,0c552.285,0,1000,447.715,1000,1000S1552.285,2000,1000,2000,0,1552.285,0,1000,447.715,0,1000,0Z" transform="translate(-16806 -2327)" fill="#fff"/>
    <g id="Group_69" data-name="Group 69" transform="translate(-292.794 -208.8)">
      <path id="Polygon_2" data-name="Polygon 2" d="M355.154,150.08c38.486-66.688,134.737-66.688,173.223,0L796.975,615.5c38.474,66.667-9.64,149.984-86.612,149.984H173.168c-76.972,0-125.085-83.317-86.612-149.984Z" transform="translate(-16597 -965.565) rotate(-59)" fill="#db4437"/>
      <path id="Polygon_3" data-name="Polygon 3" d="M355.154,150.08c38.486-66.688,134.737-66.688,173.223,0L796.975,615.5c38.474,66.667-9.64,149.984-86.612,149.984H173.168c-76.972,0-125.085-83.317-86.612-149.984Z" transform="translate(-15950.518 -556.289) rotate(-59)" fill="#f0a500"/>
      <path id="Polygon_4" data-name="Polygon 4" d="M355.154,150.08c38.486-66.688,134.737-66.688,173.223,0L796.975,615.5c38.474,66.667-9.64,149.984-86.612,149.984H173.168c-76.972,0-125.085-83.317-86.612-149.984Z" transform="translate(-15916.315 -1316.666) rotate(-59)" fill="#0f9d58"/>
      <path id="Polygon_5" data-name="Polygon 5" d="M142.039,60.185c15.387-26.716,53.938-26.716,69.325,0l107.5,186.661c15.358,26.667-3.889,59.963-34.662,59.963H69.2c-30.773,0-50.02-33.3-34.662-59.963Z" transform="translate(-15673.628 -1261.982)" fill="#4285f4"/>
    </g>
  </g>
</svg>
